<svg id="Layer_1" data-name="Layer 1" xmlns="http://www.w3.org/2000/svg" viewBox="0 0 13.7556 9.1328"><defs><style>.cls-1{fill:#231f20;}</style></defs><title>caseSensitivity</title><path class="cls-1" d="M8.4023,11.1475a.8469.8469,0,0,1,.0591.2451.17.17,0,0,1-.0522.1426.3334.3334,0,0,1-.1841.0615,3.198,3.198,0,0,1-.3438.0146c-.1435,0-.2578-.0039-.3437-.0107a.7484.7484,0,0,1-.1943-.0352A.2034.2034,0,0,1,7.2461,11.5a.5326.5326,0,0,1-.0591-.1035L6.416,9.2158H2.6792l-.7363,2.1524a.3494.3494,0,0,1-.0552.1074.2669.2669,0,0,1-.1011.0762.5865.5865,0,0,1-.1875.0449,2.7618,2.7618,0,0,1-.3159.0146,2.5306,2.5306,0,0,1-.33-.0175.3262.3262,0,0,1-.18-.0665.1725.1725,0,0,1-.0488-.1416A.86.86,0,0,1,.7832,11.14L3.7974,2.8179a.3646.3646,0,0,1,.0732-.125.3.3,0,0,1,.1318-.0762,1.0412,1.0412,0,0,1,.2222-.0381c.09-.0068.2051-.01.3438-.01q.2226,0,.3681.01a1.149,1.149,0,0,1,.2364.0381.3145.3145,0,0,1,.1386.08.37.37,0,0,1,.0767.1284ZM4.5337,3.8008H4.5269L2.978,8.2666H6.1035ZM14.48,11.4033a.1429.1429,0,0,1-.0547.124.3771.3771,0,0,1-.1523.0625,1.4786,1.4786,0,0,1-.2852.0215,1.6,1.6,0,0,1-.2891-.0215.3424.3424,0,0,1-.1562-.0625.1562.1562,0,0,1-.0488-.124V10.78a3.063,3.063,0,0,1-.9121.6787,2.4367,2.4367,0,0,1-1.0665.2422,2.9259,2.9259,0,0,1-.8925-.128,1.9412,1.9412,0,0,1-.6817-.3711,1.6567,1.6567,0,0,1-.4365-.5947,1.9635,1.9635,0,0,1-.1562-.8037,1.8465,1.8465,0,0,1,.2158-.9145,1.7863,1.7863,0,0,1,.6172-.6436,3.0536,3.0536,0,0,1,.9863-.3843A6.1386,6.1386,0,0,1,12.48,7.7334h.8613V7.2485a2.4081,2.4081,0,0,0-.0762-.6367,1.0877,1.0877,0,0,0-.246-.46,1.06,1.06,0,0,0-.4415-.2769,2.0482,2.0482,0,0,0-.666-.0937,2.6706,2.6706,0,0,0-.7617.1005,3.9855,3.9855,0,0,0-.59.2217c-.17.0806-.3106.1543-.4239.2212a.5823.5823,0,0,1-.2539.1006.1759.1759,0,0,1-.0976-.0278.2406.2406,0,0,1-.0723-.083.4478.4478,0,0,1-.0449-.1421,1.1447,1.1447,0,0,1-.0137-.1905,1.2521,1.2521,0,0,1,.0235-.2734.4014.4014,0,0,1,.1191-.19,1.5236,1.5236,0,0,1,.3223-.211,3.5482,3.5482,0,0,1,.5273-.2216A4.85,4.85,0,0,1,11.3,4.9189a3.9055,3.9055,0,0,1,.7148-.0659,3.7718,3.7718,0,0,1,1.1465.1524,1.8612,1.8612,0,0,1,.7637.4467,1.7381,1.7381,0,0,1,.4238.7305A3.5287,3.5287,0,0,1,14.48,7.2ZM13.3408,8.5571h-.9785a3.7434,3.7434,0,0,0-.82.08,1.7042,1.7042,0,0,0-.5762.2349.965.965,0,0,0-.3359.3755,1.1085,1.1085,0,0,0-.1094.5009,1.0012,1.0012,0,0,0,.3106.7725,1.2188,1.2188,0,0,0,.8632.2871,1.6185,1.6185,0,0,0,.8379-.2285,3.5836,3.5836,0,0,0,.8086-.6992Z" transform="translate(-0.7239 -2.5684)"/></svg>