<svg id="Layer_1" data-name="Layer 1" xmlns="http://www.w3.org/2000/svg" viewBox="0 0 13.0088 14.7777"><defs><style>.cls-1{fill:#231f20;}</style></defs><title>findAndReplace</title><path class="cls-1" d="M8.5529,15.414H1.5049V7.983h7.048ZM6.6475,11.9229a2.25,2.25,0,0,0-.0835-.6465,1.1022,1.1022,0,0,0-.2681-.4639,1.1839,1.1839,0,0,0-.4839-.2832,2.3729,2.3729,0,0,0-.7251-.0967,2.4263,2.4263,0,0,0-.4526.042,2.8993,2.8993,0,0,0-.4131.1055,2.1311,2.1311,0,0,0-.3345.1406.9368.9368,0,0,0-.2041.1338.25.25,0,0,0-.0747.1211.7732.7732,0,0,0-.0156.1738.7477.7477,0,0,0,.0088.12A.2717.2717,0,0,0,3.63,11.36a.15.15,0,0,0,.0459.0527.1085.1085,0,0,0,.0615.0176.3673.3673,0,0,0,.1606-.0645q.1077-.063.2681-.1406A2.6788,2.6788,0,0,1,4.54,11.085a1.6973,1.6973,0,0,1,.4814-.0635,1.2858,1.2858,0,0,1,.4219.06.6616.6616,0,0,1,.2793.1757.6952.6952,0,0,1,.1557.292,1.5268,1.5268,0,0,1,.0484.4043v.3076h-.545a3.84,3.84,0,0,0-.8305.0821,1.9132,1.9132,0,0,0-.6245.2441,1.1312,1.1312,0,0,0-.3911.4082,1.1784,1.1784,0,0,0-.1363.58,1.2519,1.2519,0,0,0,.0991.51,1.056,1.056,0,0,0,.2769.3779,1.2,1.2,0,0,0,.4307.2353,1.8237,1.8237,0,0,0,.5649.0821,1.5357,1.5357,0,0,0,.6748-.1543,1.9516,1.9516,0,0,0,.5776-.4307v.3955a.0985.0985,0,0,0,.0308.0791.2169.2169,0,0,0,.0991.04,1.0067,1.0067,0,0,0,.1826.0127.9316.9316,0,0,0,.18-.0127.2464.2464,0,0,0,.0967-.04.0927.0927,0,0,0,.0352-.0791ZM5.9263,13.624a2.2808,2.2808,0,0,1-.5117.4434,1.019,1.019,0,0,1-.53.1455.77.77,0,0,1-.5474-.1826.6375.6375,0,0,1-.1953-.49.71.71,0,0,1,.0679-.3183.6117.6117,0,0,1,.2133-.2373,1.05,1.05,0,0,1,.3648-.1494,2.3053,2.3053,0,0,1,.5185-.0508h.62ZM10.0352,3.95H4.6533V4.7h5.3819Zm-4.6309.375h-.75v2.06h.75ZM3.9073,6.0571,5.0292,8,6.1511,6.0571ZM14.4258,3.8013a2.0024,2.0024,0,0,0-.2793-.6748,1.4163,1.4163,0,0,0-.4961-.459,1.4841,1.4841,0,0,0-.7363-.1719,1.5319,1.5319,0,0,0-.334.0352,1.4065,1.4065,0,0,0-.3164.1123,1.9576,1.9576,0,0,0-.3233.2A2.8946,2.8946,0,0,0,11.6,3.146V.7769A.1079.1079,0,0,0,11.582.7153a.1275.1275,0,0,0-.0566-.0439.4084.4084,0,0,0-.11-.0264,1.523,1.523,0,0,0-.1806-.0088,1.47,1.47,0,0,0-.1758.0088.4252.4252,0,0,0-.1113.0264A.1163.1163,0,0,0,10.89.7153a.1259.1259,0,0,0-.0156.0616v5.872a.1326.1326,0,0,0,.0137.0615.091.091,0,0,0,.0527.042.4327.4327,0,0,0,.1006.0245,1.3129,1.3129,0,0,0,.3018,0,.44.44,0,0,0,.0986-.0245.1148.1148,0,0,0,.0576-.042.1061.1061,0,0,0,.0176-.0615V6.1655a3.8163,3.8163,0,0,0,.3252.3076,1.8,1.8,0,0,0,.3076.211,1.1958,1.1958,0,0,0,.3145.1211,1.5,1.5,0,0,0,.3486.0381,1.6414,1.6414,0,0,0,.7256-.1543,1.4627,1.4627,0,0,0,.5342-.4444,2.0549,2.0549,0,0,0,.3291-.7011,3.4933,3.4933,0,0,0,.1123-.9248A3.6787,3.6787,0,0,0,14.4258,3.8013ZM13.707,5.25a1.7075,1.7075,0,0,1-.1767.4883,1.01,1.01,0,0,1-.3164.3486.8167.8167,0,0,1-.4688.1319.9859.9859,0,0,1-.57-.1905A3.0146,3.0146,0,0,1,11.6,5.4712V3.8931a3.44,3.44,0,0,1,.3252-.3643,2.0563,2.0563,0,0,1,.294-.2373,1.0521,1.0521,0,0,1,.2783-.1318,1.0042,1.0042,0,0,1,.2793-.04.8039.8039,0,0,1,.4726.1338.9918.9918,0,0,1,.3057.3545,1.6734,1.6734,0,0,1,.1611.5049,3.6284,3.6284,0,0,1,.0469.59A2.7073,2.7073,0,0,1,13.707,5.25Z" transform="translate(-1.5049 -0.6362)"/></svg>