<svg id="Layer_1" data-name="Layer 1" xmlns="http://www.w3.org/2000/svg" viewBox="0 0 14.1624 14.9727"><defs><style>.cls-1{fill:#231f20;}</style></defs><title>replaceAll</title><path class="cls-1" d="M9.7256,12.0449a3.7462,3.7462,0,0,1,.0459.59,2.7064,2.7064,0,0,1-.0557.5468,1.6781,1.6781,0,0,1-.1767.4883,1.01,1.01,0,0,1-.3164.3487.8119.8119,0,0,1-.4678.1318.9866.9866,0,0,1-.5708-.19,3.0175,3.0175,0,0,1-.5747-.5567V11.8252a3.3863,3.3863,0,0,1,.3247-.3643,2.1,2.1,0,0,1,.2944-.2373,1.0422,1.0422,0,0,1,.2783-.1318,1.0012,1.0012,0,0,1,.2788-.04.8058.8058,0,0,1,.4732.1337.9815.9815,0,0,1,.3047.3545A1.6518,1.6518,0,0,1,9.7256,12.0449Z" transform="translate(-0.9372 -0.436)"/><path class="cls-1" d="M3.6929,12.83a1.05,1.05,0,0,0-.3648.1494.612.612,0,0,0-.2134.2373.71.71,0,0,0-.0678.3184.6374.6374,0,0,0,.1953.49.77.77,0,0,0,.5474.1826,1.0186,1.0186,0,0,0,.53-.1455,2.2785,2.2785,0,0,0,.5118-.4434v-.84h-.62A2.3053,2.3053,0,0,0,3.6929,12.83Z" transform="translate(-0.9372 -0.436)"/><path class="cls-1" d="M1.0234,7.9777v7.431h11V7.9777Zm4.5288,6.6082a.0925.0925,0,0,1-.0351.0791.2464.2464,0,0,1-.0967.04.9323.9323,0,0,1-.18.0127,1.0067,1.0067,0,0,1-.1826-.0127.2169.2169,0,0,1-.0991-.04.0983.0983,0,0,1-.0308-.0791V14.19a1.95,1.95,0,0,1-.5776.4307,1.5357,1.5357,0,0,1-.6748.1543,1.8268,1.8268,0,0,1-.5649-.082A1.2005,1.2005,0,0,1,2.68,14.458a1.0548,1.0548,0,0,1-.2769-.3779,1.2515,1.2515,0,0,1-.0991-.51,1.18,1.18,0,0,1,.1362-.58,1.1324,1.1324,0,0,1,.3912-.4082,1.9132,1.9132,0,0,1,.6245-.2441,3.84,3.84,0,0,1,.8305-.082h.545v-.3077a1.5309,1.5309,0,0,0-.0484-.4043.6948.6948,0,0,0-.1557-.2919.6608.6608,0,0,0-.2793-.1758,1.2858,1.2858,0,0,0-.4219-.06,1.6985,1.6985,0,0,0-.4815.0635,2.6772,2.6772,0,0,0-.3735.1406q-.16.0777-.2681.1406a.3677.3677,0,0,1-.1606.0645.1083.1083,0,0,1-.0615-.0176.15.15,0,0,1-.0459-.0527.271.271,0,0,1-.0288-.0909.7477.7477,0,0,1-.0088-.12.7674.7674,0,0,1,.0156-.1738.25.25,0,0,1,.0747-.1211.9368.9368,0,0,1,.2041-.1338,2.1406,2.1406,0,0,1,.3345-.1406,2.8958,2.8958,0,0,1,.4131-.1055,2.4263,2.4263,0,0,1,.4526-.042,2.376,2.376,0,0,1,.7251.0967,1.1846,1.1846,0,0,1,.4839.2832,1.1022,1.1022,0,0,1,.2681.4639,2.2511,2.2511,0,0,1,.0834.6465Zm4.8589-1.11a2.0556,2.0556,0,0,1-.33.7012,1.4521,1.4521,0,0,1-.5332.4443,1.6447,1.6447,0,0,1-.7256.1543,1.5094,1.5094,0,0,1-.3492-.0381,1.1917,1.1917,0,0,1-.3144-.1211,1.8044,1.8044,0,0,1-.3076-.2109,3.8024,3.8024,0,0,1-.3252-.3076v.4834a.1063.1063,0,0,1-.0176.0615.1143.1143,0,0,1-.0571.042.4438.4438,0,0,1-.0991.0244,1.2938,1.2938,0,0,1-.3013,0,.4432.4432,0,0,1-.1011-.0244.0911.0911,0,0,1-.0527-.042.1329.1329,0,0,1-.0132-.0615V8.709a.12.12,0,0,1,.0156-.0615.1145.1145,0,0,1,.0571-.044.4367.4367,0,0,1,.1119-.0264,1.47,1.47,0,0,1,.1757-.0087,1.5338,1.5338,0,0,1,.1807.0087.409.409,0,0,1,.11.0264.1292.1292,0,0,1,.0571.044.1081.1081,0,0,1,.0176.0615v2.3691a2.9248,2.9248,0,0,1,.34-.3027,1.996,1.996,0,0,1,.3232-.2,1.409,1.409,0,0,1,.3165-.1123,1.5378,1.5378,0,0,1,.3339-.0352,1.482,1.482,0,0,1,.7359.1719,1.42,1.42,0,0,1,.4971.459,2.0207,2.0207,0,0,1,.2792.6748,3.6793,3.6793,0,0,1,.0879.8174A3.53,3.53,0,0,1,10.4111,13.4756Z" transform="translate(-0.9372 -0.436)"/><polygon class="cls-1" points="6.128 4.046 6.128 3.296 0.746 3.296 0.746 4.046 0.747 4.046 0.747 5.621 0 5.621 1.122 7.564 2.244 5.621 1.497 5.621 1.497 4.046 6.128 4.046"/><path class="cls-1" d="M10.748,5.83c0,.05-.0009.0928-.0039.13a.4869.4869,0,0,1-.0156.0918.4251.4251,0,0,1-.0264.0664.4688.4688,0,0,1-.07.083,1.0733,1.0733,0,0,1-.1875.1367,1.8139,1.8139,0,0,1-.2959.1445,2.19,2.19,0,0,1-.3584.1035,1.9932,1.9932,0,0,1-.4.04,1.9092,1.9092,0,0,1-.7553-.1416,1.4315,1.4315,0,0,1-.5518-.41,1.87,1.87,0,0,1-.3384-.664,3.2054,3.2054,0,0,1-.1167-.9073,3.1319,3.1319,0,0,1,.1431-1.0048A1.8975,1.8975,0,0,1,8.1616,2.81a1.5516,1.5516,0,0,1,.5845-.3985,2.0164,2.0164,0,0,1,.7275-.1289,1.89,1.89,0,0,1,.3672.0352,2.009,2.009,0,0,1,.3272.0918,1.4357,1.4357,0,0,1,.2656.1318,1.0458,1.0458,0,0,1,.17.1279.5991.5991,0,0,1,.0723.083.3312.3312,0,0,1,.0332.0723.4458.4458,0,0,1,.0176.0947c.0019.0352.0039.0791.0039.1319a.52.52,0,0,1-.0391.24.1148.1148,0,0,1-.0967.0674.25.25,0,0,1-.1523-.0723,2.2865,2.2865,0,0,0-.2178-.16,1.6683,1.6683,0,0,0-.3183-.1612,1.2277,1.2277,0,0,0-.4415-.0722.9163.9163,0,0,0-.8022.4023,2.0419,2.0419,0,0,0-.2788,1.167,2.7537,2.7537,0,0,0,.0723.67,1.3834,1.3834,0,0,0,.2133.4815.877.877,0,0,0,.3443.2881,1.1019,1.1019,0,0,0,.4687.0947,1.1323,1.1323,0,0,0,.44-.0791,1.8,1.8,0,0,0,.3271-.1738c.0928-.0625.17-.12.2334-.1709a.2717.2717,0,0,1,.1475-.0772.0857.0857,0,0,1,.0527.0176.1346.1346,0,0,1,.0371.06.4309.4309,0,0,1,.0215.1054A1.35,1.35,0,0,1,10.748,5.83Z" transform="translate(-0.9372 -0.436)"/><path class="cls-1" d="M15.1,6.4312a.1134.1134,0,0,1-.0156.0615.0984.0984,0,0,1-.0527.042.3966.3966,0,0,1-.0987.0244,1.0871,1.0871,0,0,1-.1494.0088,1.1188,1.1188,0,0,1-.1533-.0088.4482.4482,0,0,1-.1016-.0244.1086.1086,0,0,1-.0566-.042.1063.1063,0,0,1-.0176-.0615V5.9087a2.7,2.7,0,0,1-.6484.5273,1.4794,1.4794,0,0,1-.7364.1895,1.5178,1.5178,0,0,1-.7431-.17,1.3946,1.3946,0,0,1-.4991-.4571,2.0146,2.0146,0,0,1-.2792-.6767,3.71,3.71,0,0,1-.0879-.8194,3.5612,3.5612,0,0,1,.11-.9209,2.05,2.05,0,0,1,.3252-.7011,1.4453,1.4453,0,0,1,.5342-.4463,1.6467,1.6467,0,0,1,.7363-.1563,1.3445,1.3445,0,0,1,.6348.1514,2.2566,2.2566,0,0,1,.5693.4463V.5767a.1212.1212,0,0,1,.0156-.06.1013.1013,0,0,1,.06-.044.7623.7623,0,0,1,.1113-.0263A1.1936,1.1936,0,0,1,14.7305.436a1.2759,1.2759,0,0,1,.1806.0108.6262.6262,0,0,1,.1094.0263.1346.1346,0,0,1,.06.044.1081.1081,0,0,1,.02.06ZM14.37,3.6489a2.8329,2.8329,0,0,0-.5693-.5556.984.984,0,0,0-.5733-.1914.8164.8164,0,0,0-.4707.1318,1.019,1.019,0,0,0-.3144.3476,1.685,1.685,0,0,0-.1758.4874,2.8427,2.8427,0,0,0-.0547.5546,3.7069,3.7069,0,0,0,.0459.584,1.677,1.677,0,0,0,.1611.5078.9748.9748,0,0,0,.3028.3565.8041.8041,0,0,0,.4746.1338.9844.9844,0,0,0,.2793-.04,1.0317,1.0317,0,0,0,.2744-.1318,2.0513,2.0513,0,0,0,.2949-.2393,3.565,3.565,0,0,0,.3252-.3623Z" transform="translate(-0.9372 -0.436)"/></svg>