<svg id="Layer_1" data-name="Layer 1" xmlns="http://www.w3.org/2000/svg" viewBox="0 0 12.2335 12.7376"><defs><style>.cls-1{fill:#231f20;}</style></defs><title>useRegex</title><path class="cls-1" d="M5.195,14.3636H1.8612V11.03H5.195Zm5.6-7.8807,3.13-1.3765a.3044.3044,0,0,0,.169-.3183,1.8906,1.8906,0,0,0-.3116-.7207,1.9522,1.9522,0,0,0-.4873-.6362.2806.2806,0,0,0-.3437,0l-2.7666,2,.3633-3.39a.2683.2683,0,0,0-.168-.312,2.0749,2.0749,0,0,0-.8057-.1035A2.0705,2.0705,0,0,0,8.769,1.73a.27.27,0,0,0-.1689.312l.3638,3.39-2.7535-2a.29.29,0,0,0-.3505,0,1.8775,1.8775,0,0,0-.4932.623,1.8543,1.8543,0,0,0-.3052.7339.3133.3133,0,0,0,.1753.3183l3.13,1.3765-3.13,1.39a.2884.2884,0,0,0-.1753.3051,1.8543,1.8543,0,0,0,.3052.7339,1.8913,1.8913,0,0,0,.4932.6363.2938.2938,0,0,0,.3505,0L8.9639,7.5347,8.6,10.9365a.2589.2589,0,0,0,.1689.2989,2.058,2.058,0,0,0,.8052.1044,2.0623,2.0623,0,0,0,.8057-.1044.2578.2578,0,0,0,.168-.2989l-.3633-3.4018,2.7666,2.0132a.2838.2838,0,0,0,.3437,0,1.972,1.972,0,0,0,.4873-.6363,1.98,1.98,0,0,0,.3116-.7339.28.28,0,0,0-.169-.3051Z" transform="translate(-1.8612 -1.626)"/></svg>