<svg id="Layer_1" data-name="Layer 1" xmlns="http://www.w3.org/2000/svg" viewBox="0 0 11.2 7.5049"><defs><style>.cls-1{fill:#231f20;}</style></defs><title>wholeWord</title><path class="cls-1" d="M3.8291,8.65l-.56,1.6948H2.55L4.3809,4.9561h.84L7.06,10.3447H6.3159L5.74,8.65ZM5.5962,8.106,5.0688,6.5552c-.12-.3516-.2-.6714-.28-.9834H4.7729c-.08.32-.1679.6474-.2719.9756L3.9731,8.106Zm2.1724,2.2387c.0161-.2636.0317-.6552.0317-.999V4.6685h.6958V7.0991h.0161a1.4405,1.4405,0,0,1,1.3189-.7119c.96,0,1.6386.8,1.6308,1.9746a1.8385,1.8385,0,0,1-1.7344,2.0708,1.3782,1.3782,0,0,1-1.2954-.7275H8.4082l-.0322.64Zm.7275-1.55a1.34,1.34,0,0,0,.0317.2554A1.0859,1.0859,0,0,0,9.583,9.873c.7354,0,1.1758-.6,1.1758-1.4868,0-.7754-.4-1.4394-1.1514-1.4394a1.1222,1.1222,0,0,0-1.0713.8642,1.37,1.37,0,0,0-.04.2871Zm3.8506-4.1259h.7041v5.6762h-.7041ZM13.6,3.7624H2.4v.25H13.6Zm0,7.2549H2.4v.25H13.6Z" transform="translate(-2.4 -3.7624)"/></svg>